<?xml version="1.0" encoding="UTF-8" standalone="no"?>
<svg width="330px" height="166px" viewBox="0 0 330 166" version="1.1" xmlns="http://www.w3.org/2000/svg" xmlns:xlink="http://www.w3.org/1999/xlink" xmlns:sketch="http://www.bohemiancoding.com/sketch/ns">
    <!-- Generator: Sketch 3.3.2 (12043) - http://www.bohemiancoding.com/sketch -->
    <title>Social Places</title>
    <desc>Created with Sketch.</desc>
    <defs></defs>
    <g id="Page-1" stroke="none" stroke-width="1" fill="none" fill-rule="evenodd" sketch:type="MSPage">
        <g id="Create-Copy-3" sketch:type="MSArtboardGroup" transform="translate(-382.000000, -899.000000)">
            <g id="3-Steps" sketch:type="MSLayerGroup" transform="translate(131.000000, 660.000000)">
                <g id="1---Hook-up-your-fav" transform="translate(53.000000, 133.000000)" sketch:type="MSShapeGroup">
                    <g id="Social-Places" transform="translate(198.000000, 106.000000)">
                        <g id="Github" transform="translate(1.000000, 100.000000)" fill="#3D455A">
                            <path d="M32.9641,0 C15.0163,0 0.4641,14.547 0.4641,32.5 C0.4641,50.453 15.0163,65 32.9641,65 C50.9132,65 65.4641,50.453 65.4641,32.5 C65.4641,14.547 50.9132,0 32.9641,0 L32.9641,0 Z M32.9641,2.08 C49.738,2.08 63.3854,15.73 63.3854,32.5 C63.3854,49.27 49.738,62.92 32.9641,62.92 C16.1915,62.92 2.5441,49.27 2.5441,32.5 C2.5441,15.73 16.1915,2.08 32.9641,2.08 L32.9641,2.08 Z" id="Fill-290"></path>
                            <path d="M42.0641,56.16 C42.0641,52.715 40.3182,50.895 38.8765,49.907 C46.6882,49.101 55.0641,46.293 55.0641,32.812 C55.0641,29.029 53.7251,25.935 51.5099,23.543 C51.8622,22.633 53.0582,19.045 51.1602,14.3 C51.1602,14.3 47.2641,14.3 41.6559,17.927 C38.8765,17.16 35.919,16.9 32.9641,16.9 C30.043,16.9 27.053,17.16 24.3074,17.927 C17.6904,13.442 14.7706,14.378 14.7706,14.378 C12.9038,19.123 14.0647,22.633 14.4157,23.543 C12.2018,25.935 10.8641,29.029 10.8641,32.812 C10.8641,46.293 19.2387,49.101 27.053,49.907 C25.6087,50.895 23.8641,52.715 23.8641,56.16 L23.8641,62.504 C26.6032,63.323 29.7999,63.778 32.8055,63.778 C35.9372,63.778 39.2249,63.297 42.0641,62.4 L42.0641,56.16" id="Fill-292"></path>
                        </g>
                        <g id="Tumblr" transform="translate(132.175000, 0.000000)" fill="#3D455A">
                            <path d="M32.9641,0 C15.0163,0 0.4641,14.547 0.4641,32.5 C0.4641,50.453 15.0163,65 32.9641,65 C50.9132,65 65.4641,50.453 65.4641,32.5 C65.4641,14.547 50.9132,0 32.9641,0 L32.9641,0 Z M32.9641,2.08 C49.738,2.08 63.3854,15.73 63.3854,32.5 C63.3854,49.27 49.738,62.92 32.9641,62.92 C16.1915,62.92 2.5441,49.27 2.5441,32.5 C2.5441,15.73 16.1915,2.08 32.9641,2.08 L32.9641,2.08 Z" id="Fill-314"></path>
                            <path d="M33.4685,11.7 L33.4685,21.32 L43.043,21.32 L43.043,28.756 L33.4685,28.756 L33.4685,39.416 C33.4685,41.821 33.4373,43.212 33.6895,43.901 C33.9443,44.577 34.5787,45.292 35.2664,45.695 C36.1881,46.254 37.2307,46.527 38.4111,46.527 C40.5093,46.527 42.5958,45.838 44.6641,44.473 L44.6641,51.038 C42.9,51.87 41.2958,52.455 39.8619,52.793 C38.4254,53.131 36.8745,53.3 35.2079,53.3 C33.3099,53.3 32.1971,53.053 30.7411,52.585 C29.289,52.104 28.0462,51.415 27.0205,50.531 C25.9922,49.634 25.2811,48.698 24.8846,47.697 C24.4881,46.696 24.2905,45.24 24.2905,43.342 L24.2905,28.756 L18.6641,28.756 L18.6641,22.854 C20.2904,22.321 22.178,21.567 23.3324,20.579 C24.4959,19.578 25.4267,18.395 26.1274,17.004 C26.8333,15.613 27.3143,13.845 27.5782,11.7 L33.4685,11.7" id="Fill-316"></path>
                        </g>
                        <g id="Reddit" transform="translate(264.000000, 0.000000)" fill="#3D455A">
                            <g id="Reddit-alien" transform="translate(7.800000, 10.400000)">
                                <path d="M17.7255,27.521 C15.8418,27.521 14.3052,25.974 14.3052,24.089 C14.3052,22.191 15.8418,20.644 17.7255,20.644 C19.6092,20.644 21.1432,22.191 21.1432,24.089 C21.1432,25.974 19.6092,27.521 17.7255,27.521" id="Fill-384"></path>
                                <path d="M32.6144,27.521 C30.7307,27.521 29.1967,25.974 29.1967,24.089 C29.1967,22.191 30.7307,20.644 32.6144,20.644 C34.5007,20.644 36.0321,22.191 36.0321,24.089 C36.0321,25.974 34.5007,27.521 32.6144,27.521" id="Fill-386"></path>
                                <path d="M25.1368,36.335 C21.4552,36.335 18.8578,35.516 17.1925,33.839 C16.8207,33.475 16.8207,32.864 17.1925,32.5 C17.563,32.123 18.1649,32.123 18.5354,32.5 C19.825,33.787 21.9856,34.424 25.1368,34.424 C25.662,34.424 26.0858,34.84 26.0858,35.373 C26.0858,35.906 25.662,36.335 25.1368,36.335" id="Fill-387"></path>
                                <path d="M25.1901,36.335 C24.6675,36.335 24.2398,35.906 24.2398,35.373 C24.2398,34.84 24.6675,34.424 25.1901,34.424 C28.3413,34.424 30.5019,33.787 31.7915,32.5 C32.162,32.123 32.7665,32.123 33.137,32.5 C33.5049,32.864 33.5049,33.475 33.137,33.839 C31.4717,35.516 28.8717,36.335 25.1901,36.335" id="Fill-388"></path>
                                <path d="M46.4984,23.296 C45.6924,21.073 44.1727,19.058 42.0745,17.355 C42.6842,16.9 43.4252,16.614 44.2455,16.614 C46.2943,16.614 47.9648,18.291 47.9648,20.345 C47.9648,21.554 47.3863,22.62 46.4984,23.296 L46.4984,23.296 Z M25.0627,39.689 C13.9321,39.689 4.8776,33.904 4.8776,26.793 C4.8776,19.682 13.9321,13.884 25.0627,13.884 C36.192,13.884 45.2491,19.682 45.2491,26.793 C45.2491,33.904 36.192,39.689 25.0627,39.689 L25.0627,39.689 Z M2.3634,20.345 C2.3634,18.291 4.03,16.614 6.0762,16.614 C6.8575,16.614 7.5686,16.861 8.1653,17.277 C6.0554,18.954 4.5123,20.956 3.6816,23.153 C2.8873,22.464 2.3634,21.476 2.3634,20.345 L2.3634,20.345 Z M41.9068,1.911 C43.4135,1.911 44.6394,3.133 44.6394,4.641 C44.6394,6.162 43.4135,7.384 41.9068,7.384 C40.404,7.384 39.1781,6.162 39.1781,4.641 C39.1781,3.133 40.404,1.911 41.9068,1.911 L41.9068,1.911 Z M49.8641,20.345 C49.8641,17.225 47.346,14.703 44.2455,14.703 C42.7856,14.703 41.4583,15.275 40.4599,16.198 C36.8043,13.806 31.9189,12.272 26.5057,12.025 L29.4047,2.808 L37.2814,4.68 C37.2983,7.228 39.3653,9.295 41.9068,9.295 C44.4613,9.295 46.5361,7.215 46.5361,4.641 C46.5361,2.08 44.4613,0 41.9068,0 C40.0075,0 38.3734,1.157 37.6623,2.808 L28.9835,0.754 C28.5064,0.637 28.0111,0.923 27.8616,1.391 L24.5245,11.999 C18.7967,12.09 13.6071,13.65 9.7552,16.146 C8.7672,15.262 7.4984,14.703 6.0762,14.703 C2.9835,14.703 0.4641,17.225 0.4641,20.345 C0.4641,22.36 1.5418,24.115 3.1304,25.103 C3.0394,25.662 2.9783,26.221 2.9783,26.793 C2.9783,34.957 12.8856,41.6 25.0627,41.6 C37.2385,41.6 47.1484,34.957 47.1484,26.793 C47.1484,26.26 47.099,25.727 47.0158,25.207 C48.7071,24.232 49.8641,22.438 49.8641,20.345 L49.8641,20.345 Z" id="Fill-389"></path>
                            </g>
                            <path d="M32.9641,0 C15.0163,0 0.4641,14.547 0.4641,32.5 C0.4641,50.453 15.0163,65 32.9641,65 C50.9132,65 65.4641,50.453 65.4641,32.5 C65.4641,14.547 50.9132,0 32.9641,0 L32.9641,0 Z M32.9641,2.08 C49.738,2.08 63.3854,15.73 63.3854,32.5 C63.3854,49.27 49.738,62.92 32.9641,62.92 C16.1915,62.92 2.5441,49.27 2.5441,32.5 C2.5441,15.73 16.1915,2.08 32.9641,2.08 L32.9641,2.08 Z" id="Fill-390"></path>
                        </g>
                        <g id="Twitter" fill="#3D455A">
                            <path d="M55.6634,19.903 C54.0189,20.644 52.2444,21.138 50.3828,21.359 C52.2821,20.215 53.7394,18.421 54.4271,16.276 C52.6526,17.329 50.6844,18.096 48.5901,18.499 C46.9118,16.718 44.525,15.6 41.8821,15.6 C36.8043,15.6 32.6885,19.721 32.6885,24.791 C32.6885,25.506 32.7717,26.208 32.929,26.884 C25.2889,26.494 18.5146,22.841 13.9828,17.277 C13.1924,18.642 12.7413,20.215 12.7413,21.905 C12.7413,25.09 14.3585,27.898 16.8285,29.549 C15.3231,29.51 13.9035,29.094 12.662,28.405 L12.662,28.522 C12.662,32.968 15.8314,36.686 20.0356,37.531 C19.2634,37.739 18.4509,37.843 17.6189,37.843 C17.0248,37.843 16.4476,37.791 15.8873,37.687 C17.0573,41.34 20.4516,43.992 24.4712,44.07 C21.3252,46.527 17.3641,47.996 13.0585,47.996 C12.3149,47.996 11.5804,47.957 10.8641,47.866 C14.9292,50.479 19.7613,52 24.9535,52 C41.8613,52 51.1069,37.999 51.1069,25.857 C51.1069,25.454 51.0939,25.064 51.0783,24.661 C52.8762,23.374 54.4323,21.749 55.6634,19.903" id="Fill-418"></path>
                            <path d="M32.9641,0 C15.0163,0 0.4641,14.547 0.4641,32.5 C0.4641,50.453 15.0163,65 32.9641,65 C50.9132,65 65.4641,50.453 65.4641,32.5 C65.4641,14.547 50.9132,0 32.9641,0 L32.9641,0 Z M32.9641,2.08 C49.738,2.08 63.3854,15.73 63.3854,32.5 C63.3854,49.27 49.738,62.92 32.9641,62.92 C16.1915,62.92 2.5441,49.27 2.5441,32.5 C2.5441,15.73 16.1915,2.08 32.9641,2.08 L32.9641,2.08 Z" id="Fill-420"></path>
                        </g>
                        <g id="Pocket" transform="translate(133.250000, 100.000000)">
                            <g id="pocket" transform="translate(10.100000, 12.500000)" fill="#3D455A">
                                <path d="M0.41,3.16471709 C1.4943626,0.725728437 3.44501209,0.121583563 5.98386437,0.14098478 C17.2574754,0.226410293 28.5328913,0.179636817 39.8066527,0.176177685 C41.1050303,0.175876891 42.4713873,0.15918282 43.3724159,1.21827871 C43.969041,1.91958007 44.6104843,2.88392584 44.6187561,3.73637621 C44.6722975,9.21428728 44.8578874,14.7176154 44.4283535,20.1672519 C43.7208859,29.1444507 36.8996285,36.7349888 28.1283233,38.9247696 C15.5927307,42.0530279 3.29626943,34.2353902 0.832766055,21.5629363 C0.656951925,20.6582982 0.549418048,19.7404251 0.410150397,18.8285679 C0.41,13.606783 0.41,8.38499805 0.41,3.16321312 L0.41,3.16471709 Z M22.6431931,20.1655975 C22.0585999,19.6313872 21.5350678,19.1704203 21.0312377,18.6889994 C18.8271693,16.5832906 16.6420508,14.4577294 14.4235442,12.367361 C12.9869517,11.0137878 11.2185834,11.0364977 9.94517178,12.3652555 C8.74680823,13.6156564 8.74801141,15.491709 10.0611279,16.764519 C13.4864203,20.0857367 16.9371298,23.3812364 20.4117524,26.6505671 C21.8130015,27.9693987 23.2986234,28.0593361 24.6761098,26.777803 C28.2650342,23.4368833 31.829895,20.0654331 35.2914331,16.5939688 C37.045664,14.8347747 36.045223,11.9739224 33.6196197,11.4379074 C32.3645564,11.1602745 31.4131448,11.7546435 30.5449027,12.5929566 C27.9445381,15.103083 25.3261258,17.5981698 22.6445467,20.1639431 L22.6431931,20.1655975 Z" id="Shape"></path>
                            </g>
                            <circle id="Oval-22" stroke="#3D455A" stroke-width="2" cx="32.5" cy="32.5" r="32.5"></circle>
                        </g>
                        <g id="RSS" transform="translate(263.650000, 100.000000)" fill="#3D455A">
                            <path d="M32.9641,0 C15.0163,0 0.4641,14.547 0.4641,32.5 C0.4641,50.453 15.0163,65 32.9641,65 C50.9132,65 65.4641,50.453 65.4641,32.5 C65.4641,14.547 50.9132,0 32.9641,0 L32.9641,0 Z M32.9641,2.08 C49.738,2.08 63.3854,15.73 63.3854,32.5 C63.3854,49.27 49.738,62.92 32.9641,62.92 C16.1915,62.92 2.5441,49.27 2.5441,32.5 C2.5441,15.73 16.1915,2.08 32.9641,2.08 L32.9641,2.08 Z" id="Fill-302"></path>
                            <path d="M14.7836,11.7 L14.7836,19.175 C32.1425,19.175 46.2722,33.319 46.2722,50.7 L53.7641,50.7 C53.7641,29.198 36.283,11.7 14.7836,11.7 L14.7836,11.7 Z M14.7745,24.947 L14.7745,32.422 C19.6391,32.422 24.2203,34.333 27.6653,37.778 C31.1038,41.223 33.0083,45.812 33.0083,50.7 L40.5106,50.7 C40.5106,36.504 28.9601,24.947 14.7745,24.947 L14.7745,24.947 Z M19.9628,40.3 C17.0976,40.3 14.7641,42.627 14.7641,45.487 C14.7641,48.334 17.0976,50.661 19.9628,50.661 C22.8384,50.661 25.1615,48.334 25.1615,45.487 C25.1615,42.627 22.8384,40.3 19.9628,40.3 L19.9628,40.3 Z" id="Fill-304"></path>
                        </g>
                    </g>
                </g>
            </g>
        </g>
    </g>
</svg>