<?xml version="1.0" encoding="UTF-8" standalone="no"?>
<svg width="62px" height="50px" viewBox="0 0 62 50" version="1.1" xmlns="http://www.w3.org/2000/svg" xmlns:xlink="http://www.w3.org/1999/xlink" xmlns:sketch="http://www.bohemiancoding.com/sketch/ns">
    <!-- Generator: Sketch 3.1 (8751) - http://www.bohemiancoding.com/sketch -->
    <title>twitter</title>
    <desc>Created with Sketch.</desc>
    <defs></defs>
    <g id="Desktop" stroke="none" stroke-width="1" fill="none" fill-rule="evenodd" sketch:type="MSPage">
        <g id="A4" sketch:type="MSArtboardGroup" transform="translate(-14.000000, -20.000000)" fill="#464E58">
            <path d="M76,25.9107143 C73.7240939,26.9285714 71.2682743,27.6071429 68.6919126,27.9107143 C71.3204492,26.3392857 73.3372798,23.875 74.2890224,20.9285714 C71.8332028,22.375 69.109312,23.4285714 66.2109051,23.9821429 C63.8882215,21.5357143 60.5850091,20 56.9273672,20 C49.8999449,20 44.2038826,25.6607143 44.2038826,32.625 C44.2038826,33.6071429 44.3190273,34.5714286 44.5367227,35.5 C33.9632048,34.9642857 24.587911,29.9464286 18.3161255,22.3035714 C17.2222512,24.1785714 16.5979513,26.3392857 16.5979513,28.6607143 C16.5979513,33.0357143 18.8360756,36.8928571 22.2544325,39.1607143 C20.1710339,39.1071429 18.2063782,38.5357143 16.4882041,37.5892857 L16.4882041,37.75 C16.4882041,43.8571429 20.8744958,48.9642857 26.6928992,50.125 C25.6242129,50.4107143 24.4997533,50.5535714 23.3483068,50.5535714 C22.526102,50.5535714 21.7272859,50.4821429 20.9518586,50.3392857 C22.5710804,55.3571429 27.2686225,59 32.8315487,59.1071429 C28.4776414,62.4821429 22.9956763,64.5 17.0369403,64.5 C16.0078349,64.5 14.9913235,64.4464286 14,64.3214286 C19.6258959,67.9107143 26.3132817,70 33.4990279,70 C56.898581,70 69.6940309,50.7678571 69.6940309,34.0892857 C69.6940309,33.5357143 69.6760396,33 69.65445,32.4464286 C72.142654,30.6785714 74.2962189,28.4464286 76,25.9107143" id="twitter" sketch:type="MSShapeGroup"></path>
        </g>
    </g>
</svg>